# xmcd
#
# Track frame offsets:
#	150
#	11114
#	23793
#	40846
#	56002
#	70658
#	85049
#	100265
#	112085
#	126652
#	143776
#	161948
#	178134
#	195892
#	210364
#	225571
#	238704
#	256103
#	270451
#	288043
#
# Disc length: 4033 seconds
#
# Revision: 2
# Processed by: cddbd v1.5.2PL0 Copyright (c) Steve Scherf et al.
# Submitted via: audiograbber 1.83.01
#
DISCID=140fbf14
DTITLE=Various Artist - Club Grooves Volume.01
DYEAR=2007
DGENRE=Hands Up
TTITLE0=Fedde Le Grand - Put Your Hands Up For Detroit
TTITLE1=Dennis Christopher - It's Not Right (Simmons and Christopher Dub Radio Mi
TTITLE1=x)
TTITLE2=Crew 7 - Eye Of The Tiger (Sunset Crew Radio Mix)
TTITLE3=Eddie Thoneick feat. Berget Lewis - Deeper Love
TTITLE4=Coco Fay - This Is My Sound
TTITLE5=DJ Falk - The House Of God
TTITLE6=Voodoo and Serano feat. Zoe C. - Vulnerable (V&S vs Choo Blahnik Radio Mi
TTITLE6=x)
TTITLE7=Johnny Crocket - E For Electro
TTITLE8=2-4 Grooves - Like The Way I Do
TTITLE9=Disco Deejays - Upside Down
TTITLE10=Blemond and Parker - Show Me Love
TTITLE11=Winman - Fade To Grey
TTITLE12=Big Papazz - Crazy Nation
TTITLE13=Phunk Foundation - Let It Go
TTITLE14=Alex M. - I Can't Stand It
TTITLE15=Vinylshakerz - Luv In Japan
TTITLE16=Mr. Mibay - Rock Da House
TTITLE17=Jens O. - Find Your Way (Hands Up Radio Mix)
TTITLE18=Scotty - God Is A Deejay 2007
TTITLE19=Deepforces - Play It Loud
EXTD=
EXTT0=
EXTT1=
EXTT2=
EXTT3=
EXTT4=
EXTT5=
EXTT6=
EXTT7=
EXTT8=
EXTT9=
EXTT10=
EXTT11=
EXTT12=
EXTT13=
EXTT14=
EXTT15=
EXTT16=
EXTT17=
EXTT18=
EXTT19=
PLAYORDER=
